{
    "asset" : {
        "generator" : "Khronos glTF Blender I/O v1.1.46",
        "version" : "2.0"
    },
    "scene" : 0,
    "scenes" : [
        {
            "name" : "Scene",
            "nodes" : [
                39
            ]
        }
    ],
    "nodes" : [
        {
            "name" : "EndLToe",
            "translation" : [
                2.099748373031616,
                -5.646137714385986,
                -0.3168003559112549
            ]
        },
        {
            "children" : [
                0
            ],
            "name" : "LToe",
            "rotation" : [
                0,
                -1.4901161193847656e-08,
                0,
                1
            ],
            "translation" : [
                3.2080211639404297,
                -8.15544319152832,
                -2.6308858394622803
            ]
        },
        {
            "name" : "EndLFoot",
            "rotation" : [
                0,
                -1.4901161193847656e-08,
                0,
                1
            ],
            "translation" : [
                2.8642027378082275,
                -7.7017340660095215,
                -0.43213778734207153
            ]
        },
        {
            "children" : [
                1,
                2
            ],
            "name" : "LFoot",
            "rotation" : [
                0,
                -0.9076337814331055,
                0,
                0.4197632074356079
            ],
            "translation" : [
                4.6728105545043945,
                4.612279891967773,
                2.2802298069000244
            ]
        },
        {
            "children" : [
                3
            ],
            "name" : "LLeg",
            "rotation" : [
                0,
                0.3994772732257843,
                0,
                0.9167430996894836
            ],
            "translation" : [
                5.811085224151611,
                -0.18100547790527344,
                -0.08296418190002441
            ]
        },
        {
            "children" : [
                4
            ],
            "name" : "LThigh",
            "rotation" : [
                0,
                -0.17475952208042145,
                0,
                0.9846111536026001
            ],
            "translation" : [
                6.889612197875977,
                -2.5677096843719482,
                14.033692359924316
            ]
        },
        {
            "name" : "EndRFoot",
            "rotation" : [
                0,
                5.960464477539063e-08,
                0,
                1
            ],
            "translation" : [
                -2.7580742835998535,
                -7.701747417449951,
                -0.8850812911987305
            ]
        },
        {
            "name" : "EndRToe",
            "translation" : [
                -2.0219364166259766,
                -5.646134376525879,
                -0.6488528251647949
            ]
        },
        {
            "children" : [
                7
            ],
            "name" : "RToe",
            "rotation" : [
                0,
                5.960464477539063e-08,
                0,
                1
            ],
            "translation" : [
                -2.745573043823242,
                -8.155460357666016,
                -3.1105446815490723
            ]
        },
        {
            "children" : [
                6,
                8
            ],
            "name" : "RFoot",
            "rotation" : [
                0,
                -0.9076337814331055,
                0,
                0.4197632074356079
            ],
            "translation" : [
                2.2856791019439697,
                4.612308502197266,
                4.670145034790039
            ]
        },
        {
            "children" : [
                9
            ],
            "name" : "RLeg",
            "rotation" : [
                0,
                0.3994772136211395,
                0,
                0.9167431592941284
            ],
            "scale" : [
                0.9999999403953552,
                1,
                0.9999999403953552
            ],
            "translation" : [
                5.8012824058532715,
                -0.1810469627380371,
                -0.347827672958374
            ]
        },
        {
            "children" : [
                10
            ],
            "name" : "RThigh",
            "rotation" : [
                0,
                0.138138547539711,
                0,
                0.9904129505157471
            ],
            "translation" : [
                6.889598846435547,
                -2.5676777362823486,
                -14.033713340759277
            ]
        },
        {
            "name" : "EndTail2",
            "translation" : [
                1.2450027465820312,
                10.080192565917969,
                3.434938669204712
            ]
        },
        {
            "children" : [
                12
            ],
            "name" : "Tail2",
            "rotation" : [
                0,
                1.4901161193847656e-08,
                0,
                1
            ],
            "translation" : [
                1.5803900957107544,
                12.795665740966797,
                4.360266208648682
            ]
        },
        {
            "children" : [
                13
            ],
            "name" : "Tail1",
            "rotation" : [
                0,
                0.5741249322891235,
                0,
                0.8187677264213562
            ],
            "translation" : [
                10.247282981872559,
                9.570096969604492,
                1.7054990166798234e-06
            ]
        },
        {
            "name" : "EndHips",
            "rotation" : [
                0,
                -3.774903234443627e-08,
                0,
                1
            ],
            "translation" : [
                21.234098434448242,
                0,
                3.370804279256845e-06
            ]
        },
        {
            "children" : [
                5,
                11,
                14,
                15
            ],
            "name" : "Hips",
            "rotation" : [
                0,
                -0.9970929622650146,
                0,
                0.07619581371545792
            ],
            "scale" : [
                0.9999999403953552,
                1,
                0.9999999403953552
            ],
            "translation" : [
                -3.022366286131728e-07,
                9.5367431640625e-07,
                -2.2043209355615545e-06
            ]
        },
        {
            "name" : "EndRHand",
            "translation" : [
                3.985783576965332,
                -1.769796371459961,
                -2.78631591796875
            ]
        },
        {
            "children" : [
                17
            ],
            "name" : "RHand",
            "translation" : [
                3.8254289627075195,
                -1.698580265045166,
                -2.6741485595703125
            ]
        },
        {
            "children" : [
                18
            ],
            "name" : "RForeArm",
            "rotation" : [
                0,
                1.2069940567016602e-06,
                0,
                1
            ],
            "translation" : [
                4.119014739990234,
                -1.8289775848388672,
                -2.8792877197265625
            ]
        },
        {
            "children" : [
                19
            ],
            "name" : "RArm",
            "rotation" : [
                0,
                7.450580596923828e-08,
                0,
                1
            ],
            "translation" : [
                1.9327192306518555,
                -0.8581743240356445,
                -1.351064682006836
            ]
        },
        {
            "children" : [
                20
            ],
            "name" : "RShoulder",
            "rotation" : [
                0,
                -0.9111706018447876,
                0,
                0.4120291769504547
            ],
            "translation" : [
                8.740182876586914,
                -2.324697256088257,
                8.90881633758545
            ]
        },
        {
            "name" : "EndJaw",
            "rotation" : [
                0,
                -1.4901161193847656e-08,
                0,
                1
            ],
            "translation" : [
                1.9309332370758057,
                -23.605789184570312,
                6.614757061004639
            ]
        },
        {
            "children" : [
                22
            ],
            "name" : "Jaw",
            "rotation" : [
                0,
                -0.7635314464569092,
                0,
                0.6457706689834595
            ],
            "scale" : [
                0.9999999403953552,
                1,
                0.9999999403953552
            ],
            "translation" : [
                5.870862007141113,
                -2.081855297088623,
                -0.6918017268180847
            ]
        },
        {
            "name" : "EndHead",
            "translation" : [
                22.159019470214844,
                -2.6291656494140625,
                -2.6110999584198
            ]
        },
        {
            "children" : [
                23,
                24
            ],
            "name" : "Head",
            "translation" : [
                4.724205493927002,
                -0.5605263710021973,
                -0.5566754341125488
            ]
        },
        {
            "children" : [
                25
            ],
            "name" : "Neck",
            "rotation" : [
                0,
                0.017622627317905426,
                0,
                0.9998447299003601
            ],
            "scale" : [
                0.9999999403953552,
                1,
                0.9999999403953552
            ],
            "translation" : [
                11.584616661071777,
                -1.8018832206726074,
                -1.7809641361236572
            ]
        },
        {
            "name" : "EndLHand",
            "rotation" : [
                0,
                -3.725290298461914e-09,
                0,
                1
            ],
            "translation" : [
                4.769275665283203,
                -1.7698040008544922,
                -0.9508962631225586
            ]
        },
        {
            "children" : [
                27
            ],
            "name" : "LHand",
            "rotation" : [
                0,
                -3.725290298461914e-09,
                0,
                1
            ],
            "translation" : [
                4.577250003814697,
                -1.6985454559326172,
                -0.9126096963882446
            ]
        },
        {
            "children" : [
                28
            ],
            "name" : "LForeArm",
            "rotation" : [
                0,
                -3.725290298461914e-09,
                0,
                1
            ],
            "translation" : [
                4.928679466247559,
                -1.8289566040039062,
                -0.9826763868331909
            ]
        },
        {
            "children" : [
                29
            ],
            "name" : "LArm",
            "rotation" : [
                0,
                7.450580596923828e-09,
                0,
                1
            ],
            "translation" : [
                2.31260347366333,
                -0.8581712245941162,
                -0.4610833525657654
            ]
        },
        {
            "children" : [
                30
            ],
            "name" : "LShoulder",
            "rotation" : [
                0,
                0.7803427577018738,
                0,
                0.6253520250320435
            ],
            "translation" : [
                5.660618782043457,
                -2.3247058391571045,
                -11.122663497924805
            ]
        },
        {
            "children" : [
                21,
                26,
                31
            ],
            "name" : "Spine",
            "rotation" : [
                0,
                5.438923835754395e-07,
                0,
                1
            ],
            "translation" : [
                -1.730933945509605e-05,
                7.271766662597656e-06,
                -1.1192072634003125e-05
            ]
        },
        {
            "children" : [
                16,
                32
            ],
            "name" : "Waist",
            "rotation" : [
                0,
                -0.758931577205658,
                0,
                0.6511704325675964
            ],
            "scale" : [
                0.9999999403953552,
                1,
                0.9999999403953552
            ],
            "translation" : [
                0,
                -0.47671398520469666,
                22.168498992919922
            ]
        },
        {
            "children" : [
                33
            ],
            "name" : "Origin"
        },
        {
            "name" : "pm0158_00_IrisSkin"
        },
        {
            "name" : "pm0158_00_BodySkin"
        },
        {
            "children" : [
                34,
                35,
                36
            ],
            "name" : "pm0158_00",
            "rotation" : [
                -0.7071068286895752,
                0,
                0,
                0.7071068286895752
            ]
        },
        {
            "mesh" : 0,
            "name" : "Totodile",
            "skin" : 0
        },
        {
            "children" : [
                38,
                37
            ],
            "name" : "Armature",
            "scale" : [
                0.02539999969303608,
                0.02539999969303608,
                0.02539999969303608
            ]
        }
    ],
    "materials" : [
        {
            "doubleSided" : true,
            "emissiveFactor" : [
                0,
                0,
                0
            ],
            "name" : "Material__128",
            "pbrMetallicRoughness" : {
                "baseColorTexture" : {
                    "index" : 0,
                    "texCoord" : 0
                },
                "metallicFactor" : 1,
                "roughnessFactor" : 0.5
            }
        },
        {
            "doubleSided" : true,
            "emissiveFactor" : [
                0,
                0,
                0
            ],
            "name" : "Material__129",
            "pbrMetallicRoughness" : {
                "baseColorTexture" : {
                    "index" : 1,
                    "texCoord" : 0
                },
                "metallicFactor" : 1,
                "roughnessFactor" : 0.5
            }
        },
        {
            "doubleSided" : true,
            "emissiveFactor" : [
                0,
                0,
                0
            ],
            "name" : "Material__130",
            "pbrMetallicRoughness" : {
                "baseColorTexture" : {
                    "index" : 2,
                    "texCoord" : 0
                },
                "metallicFactor" : 1,
                "roughnessFactor" : 0.5
            }
        }
    ],
    "meshes" : [
        {
            "name" : "Totodile",
            "primitives" : [
                {
                    "attributes" : {
                        "POSITION" : 0,
                        "NORMAL" : 1,
                        "TEXCOORD_0" : 2,
                        "JOINTS_0" : 3,
                        "WEIGHTS_0" : 4
                    },
                    "indices" : 5,
                    "material" : 0
                },
                {
                    "attributes" : {
                        "POSITION" : 6,
                        "NORMAL" : 7,
                        "TEXCOORD_0" : 8,
                        "JOINTS_0" : 9,
                        "WEIGHTS_0" : 10
                    },
                    "indices" : 11,
                    "material" : 1
                },
                {
                    "attributes" : {
                        "POSITION" : 12,
                        "NORMAL" : 13,
                        "TEXCOORD_0" : 14,
                        "JOINTS_0" : 15,
                        "WEIGHTS_0" : 16
                    },
                    "indices" : 17,
                    "material" : 2
                }
            ]
        }
    ],
    "textures" : [
        {
            "source" : 0
        },
        {
            "source" : 1
        },
        {
            "source" : 2
        }
    ],
    "images" : [
        {
            "bufferView" : 6,
            "mimeType" : "image/png",
            "name" : "pm0158_00_Body1"
        },
        {
            "bufferView" : 13,
            "mimeType" : "image/png",
            "name" : "pm0158_00_Eye1"
        },
        {
            "bufferView" : 20,
            "mimeType" : "image/png",
            "name" : "pm0158_00_Iris1"
        }
    ],
    "skins" : [
        {
            "inverseBindMatrices" : 18,
            "joints" : [
                37,
                34,
                33,
                16,
                5,
                4,
                3,
                1,
                0,
                2,
                11,
                10,
                9,
                6,
                8,
                7,
                14,
                13,
                12,
                15,
                32,
                21,
                20,
                19,
                18,
                17,
                26,
                25,
                23,
                22,
                24,
                31,
                30,
                29,
                28,
                27,
                35,
                36
            ],
            "name" : "Armature"
        }
    ],
    "accessors" : [
        {
            "bufferView" : 0,
            "componentType" : 5126,
            "count" : 3291,
            "max" : [
                0.65852290391922,
                1.4668372869491577,
                0.7884743809700012
            ],
            "min" : [
                -0.65852290391922,
                -0.004527220036834478,
                -0.7940090298652649
            ],
            "type" : "VEC3"
        },
        {
            "bufferView" : 1,
            "componentType" : 5126,
            "count" : 3291,
            "type" : "VEC3"
        },
        {
            "bufferView" : 2,
            "componentType" : 5126,
            "count" : 3291,
            "type" : "VEC2"
        },
        {
            "bufferView" : 3,
            "componentType" : 5123,
            "count" : 3291,
            "type" : "VEC4"
        },
        {
            "bufferView" : 4,
            "componentType" : 5126,
            "count" : 3291,
            "type" : "VEC4"
        },
        {
            "bufferView" : 5,
            "componentType" : 5123,
            "count" : 14496,
            "type" : "SCALAR"
        },
        {
            "bufferView" : 7,
            "componentType" : 5126,
            "count" : 182,
            "max" : [
                0.304944783449173,
                1.4519503116607666,
                0.4283278286457062
            ],
            "min" : [
                -0.304944783449173,
                1.1078768968582153,
                0.04994732141494751
            ],
            "type" : "VEC3"
        },
        {
            "bufferView" : 8,
            "componentType" : 5126,
            "count" : 182,
            "type" : "VEC3"
        },
        {
            "bufferView" : 9,
            "componentType" : 5126,
            "count" : 182,
            "type" : "VEC2"
        },
        {
            "bufferView" : 10,
            "componentType" : 5123,
            "count" : 182,
            "type" : "VEC4"
        },
        {
            "bufferView" : 11,
            "componentType" : 5126,
            "count" : 182,
            "type" : "VEC4"
        },
        {
            "bufferView" : 12,
            "componentType" : 5123,
            "count" : 924,
            "type" : "SCALAR"
        },
        {
            "bufferView" : 14,
            "componentType" : 5126,
            "count" : 182,
            "max" : [
                0.30864807963371277,
                1.4536876678466797,
                0.42968669533729553
            ],
            "min" : [
                -0.30864807963371277,
                1.1105921268463135,
                0.05022722855210304
            ],
            "type" : "VEC3"
        },
        {
            "bufferView" : 15,
            "componentType" : 5126,
            "count" : 182,
            "type" : "VEC3"
        },
        {
            "bufferView" : 16,
            "componentType" : 5126,
            "count" : 182,
            "type" : "VEC2"
        },
        {
            "bufferView" : 17,
            "componentType" : 5123,
            "count" : 182,
            "type" : "VEC4"
        },
        {
            "bufferView" : 18,
            "componentType" : 5126,
            "count" : 182,
            "type" : "VEC4"
        },
        {
            "bufferView" : 19,
            "componentType" : 5123,
            "count" : 924,
            "type" : "SCALAR"
        },
        {
            "bufferView" : 21,
            "componentType" : 5126,
            "count" : 38,
            "type" : "MAT4"
        }
    ],
    "bufferViews" : [
        {
            "buffer" : 0,
            "byteLength" : 39492,
            "byteOffset" : 0
        },
        {
            "buffer" : 0,
            "byteLength" : 39492,
            "byteOffset" : 39492
        },
        {
            "buffer" : 0,
            "byteLength" : 26328,
            "byteOffset" : 78984
        },
        {
            "buffer" : 0,
            "byteLength" : 26328,
            "byteOffset" : 105312
        },
        {
            "buffer" : 0,
            "byteLength" : 52656,
            "byteOffset" : 131640
        },
        {
            "buffer" : 0,
            "byteLength" : 28992,
            "byteOffset" : 184296
        },
        {
            "buffer" : 0,
            "byteLength" : 60004,
            "byteOffset" : 213288
        },
        {
            "buffer" : 0,
            "byteLength" : 2184,
            "byteOffset" : 273292
        },
        {
            "buffer" : 0,
            "byteLength" : 2184,
            "byteOffset" : 275476
        },
        {
            "buffer" : 0,
            "byteLength" : 1456,
            "byteOffset" : 277660
        },
        {
            "buffer" : 0,
            "byteLength" : 1456,
            "byteOffset" : 279116
        },
        {
            "buffer" : 0,
            "byteLength" : 2912,
            "byteOffset" : 280572
        },
        {
            "buffer" : 0,
            "byteLength" : 1848,
            "byteOffset" : 283484
        },
        {
            "buffer" : 0,
            "byteLength" : 40114,
            "byteOffset" : 285332
        },
        {
            "buffer" : 0,
            "byteLength" : 2184,
            "byteOffset" : 325448
        },
        {
            "buffer" : 0,
            "byteLength" : 2184,
            "byteOffset" : 327632
        },
        {
            "buffer" : 0,
            "byteLength" : 1456,
            "byteOffset" : 329816
        },
        {
            "buffer" : 0,
            "byteLength" : 1456,
            "byteOffset" : 331272
        },
        {
            "buffer" : 0,
            "byteLength" : 2912,
            "byteOffset" : 332728
        },
        {
            "buffer" : 0,
            "byteLength" : 1848,
            "byteOffset" : 335640
        },
        {
            "buffer" : 0,
            "byteLength" : 2722,
            "byteOffset" : 337488
        },
        {
            "buffer" : 0,
            "byteLength" : 2432,
            "byteOffset" : 340212
        }
    ],
    "buffers" : [
        {
            "byteLength" : 342644,
            "uri" : "data:application/octet-stream;base64,"
        }
    ]
}
